<?xml version="1.0" encoding="utf-8" standalone="no"?>
<!DOCTYPE svg PUBLIC "-//W3C//DTD SVG 1.1//EN"
  "http://www.w3.org/Graphics/SVG/1.1/DTD/svg11.dtd">
<svg xmlns:xlink="http://www.w3.org/1999/xlink" width="720pt" height="720pt" viewBox="0 0 720 720" xmlns="http://www.w3.org/2000/svg" version="1.1">
 <metadata>
  <rdf:RDF xmlns:dc="http://purl.org/dc/elements/1.1/" xmlns:cc="http://creativecommons.org/ns#" xmlns:rdf="http://www.w3.org/1999/02/22-rdf-syntax-ns#">
   <cc:Work>
    <dc:type rdf:resource="http://purl.org/dc/dcmitype/StillImage"/>
    <dc:date>2023-12-11T15:37:40.873078</dc:date>
    <dc:format>image/svg+xml</dc:format>
    <dc:creator>
     <cc:Agent>
      <dc:title>Matplotlib v3.8.2, https://matplotlib.org/</dc:title>
     </cc:Agent>
    </dc:creator>
   </cc:Work>
  </rdf:RDF>
 </metadata>
 <defs>
  <style type="text/css">*{stroke-linejoin: round; stroke-linecap: butt}</style>
 </defs>
 <g id="figure_1">
  <g id="patch_1">
   <path d="M 0 720 
L 720 720 
L 720 0 
L 0 0 
z
" style="fill: #ffffff"/>
  </g>
  <g id="axes_1">
   <g id="patch_2">
    <path d="M 90 640.8 
L 648 640.8 
L 648 86.4 
L 90 86.4 
z
" style="fill: #ffffff"/>
   </g>
   <g id="matplotlib.axis_1">
    <g id="xtick_1">
     <g id="line2d_1">
      <path d="M 115.363636 640.8 
L 115.363636 86.4 
" clip-path="url(#p809bce743d)" style="fill: none; stroke: #b0b0b0; stroke-width: 0.8; stroke-linecap: square"/>
     </g>
     <g id="line2d_2">
      <defs>
       <path id="md58ca268b5" d="M 0 0 
L 0 3.5 
" style="stroke: #000000; stroke-width: 0.8"/>
      </defs>
      <g>
       <use xlink:href="#md58ca268b5" x="115.363636" y="640.8" style="stroke: #000000; stroke-width: 0.8"/>
      </g>
     </g>
     <g id="text_1">
      <!-- −5 -->
      <g transform="translate(107.992543 655.398438) scale(0.1 -0.1)">
       <defs>
        <path id="DejaVuSans-2212" d="M 678 2272 
L 4684 2272 
L 4684 1741 
L 678 1741 
L 678 2272 
z
" transform="scale(0.015625)"/>
        <path id="DejaVuSans-35" d="M 691 4666 
L 3169 4666 
L 3169 4134 
L 1269 4134 
L 1269 2991 
Q 1406 3038 1543 3061 
Q 1681 3084 1819 3084 
Q 2600 3084 3056 2656 
Q 3513 2228 3513 1497 
Q 3513 744 3044 326 
Q 2575 -91 1722 -91 
Q 1428 -91 1123 -41 
Q 819 9 494 109 
L 494 744 
Q 775 591 1075 516 
Q 1375 441 1709 441 
Q 2250 441 2565 725 
Q 2881 1009 2881 1497 
Q 2881 1984 2565 2268 
Q 2250 2553 1709 2553 
Q 1456 2553 1204 2497 
Q 953 2441 691 2322 
L 691 4666 
z
" transform="scale(0.015625)"/>
       </defs>
       <use xlink:href="#DejaVuSans-2212"/>
       <use xlink:href="#DejaVuSans-35" x="83.789062"/>
      </g>
     </g>
    </g>
    <g id="xtick_2">
     <g id="line2d_3">
      <path d="M 187.831169 640.8 
L 187.831169 86.4 
" clip-path="url(#p809bce743d)" style="fill: none; stroke: #b0b0b0; stroke-width: 0.8; stroke-linecap: square"/>
     </g>
     <g id="line2d_4">
      <g>
       <use xlink:href="#md58ca268b5" x="187.831169" y="640.8" style="stroke: #000000; stroke-width: 0.8"/>
      </g>
     </g>
     <g id="text_2">
      <!-- −4 -->
      <g transform="translate(180.460075 655.398438) scale(0.1 -0.1)">
       <defs>
        <path id="DejaVuSans-34" d="M 2419 4116 
L 825 1625 
L 2419 1625 
L 2419 4116 
z
M 2253 4666 
L 3047 4666 
L 3047 1625 
L 3713 1625 
L 3713 1100 
L 3047 1100 
L 3047 0 
L 2419 0 
L 2419 1100 
L 313 1100 
L 313 1709 
L 2253 4666 
z
" transform="scale(0.015625)"/>
       </defs>
       <use xlink:href="#DejaVuSans-2212"/>
       <use xlink:href="#DejaVuSans-34" x="83.789062"/>
      </g>
     </g>
    </g>
    <g id="xtick_3">
     <g id="line2d_5">
      <path d="M 260.298701 640.8 
L 260.298701 86.4 
" clip-path="url(#p809bce743d)" style="fill: none; stroke: #b0b0b0; stroke-width: 0.8; stroke-linecap: square"/>
     </g>
     <g id="line2d_6">
      <g>
       <use xlink:href="#md58ca268b5" x="260.298701" y="640.8" style="stroke: #000000; stroke-width: 0.8"/>
      </g>
     </g>
     <g id="text_3">
      <!-- −3 -->
      <g transform="translate(252.927608 655.398438) scale(0.1 -0.1)">
       <defs>
        <path id="DejaVuSans-33" d="M 2597 2516 
Q 3050 2419 3304 2112 
Q 3559 1806 3559 1356 
Q 3559 666 3084 287 
Q 2609 -91 1734 -91 
Q 1441 -91 1130 -33 
Q 819 25 488 141 
L 488 750 
Q 750 597 1062 519 
Q 1375 441 1716 441 
Q 2309 441 2620 675 
Q 2931 909 2931 1356 
Q 2931 1769 2642 2001 
Q 2353 2234 1838 2234 
L 1294 2234 
L 1294 2753 
L 1863 2753 
Q 2328 2753 2575 2939 
Q 2822 3125 2822 3475 
Q 2822 3834 2567 4026 
Q 2313 4219 1838 4219 
Q 1578 4219 1281 4162 
Q 984 4106 628 3988 
L 628 4550 
Q 988 4650 1302 4700 
Q 1616 4750 1894 4750 
Q 2613 4750 3031 4423 
Q 3450 4097 3450 3541 
Q 3450 3153 3228 2886 
Q 3006 2619 2597 2516 
z
" transform="scale(0.015625)"/>
       </defs>
       <use xlink:href="#DejaVuSans-2212"/>
       <use xlink:href="#DejaVuSans-33" x="83.789062"/>
      </g>
     </g>
    </g>
    <g id="xtick_4">
     <g id="line2d_7">
      <path d="M 332.766234 640.8 
L 332.766234 86.4 
" clip-path="url(#p809bce743d)" style="fill: none; stroke: #b0b0b0; stroke-width: 0.8; stroke-linecap: square"/>
     </g>
     <g id="line2d_8">
      <g>
       <use xlink:href="#md58ca268b5" x="332.766234" y="640.8" style="stroke: #000000; stroke-width: 0.8"/>
      </g>
     </g>
     <g id="text_4">
      <!-- −2 -->
      <g transform="translate(325.39514 655.398438) scale(0.1 -0.1)">
       <defs>
        <path id="DejaVuSans-32" d="M 1228 531 
L 3431 531 
L 3431 0 
L 469 0 
L 469 531 
Q 828 903 1448 1529 
Q 2069 2156 2228 2338 
Q 2531 2678 2651 2914 
Q 2772 3150 2772 3378 
Q 2772 3750 2511 3984 
Q 2250 4219 1831 4219 
Q 1534 4219 1204 4116 
Q 875 4013 500 3803 
L 500 4441 
Q 881 4594 1212 4672 
Q 1544 4750 1819 4750 
Q 2544 4750 2975 4387 
Q 3406 4025 3406 3419 
Q 3406 3131 3298 2873 
Q 3191 2616 2906 2266 
Q 2828 2175 2409 1742 
Q 1991 1309 1228 531 
z
" transform="scale(0.015625)"/>
       </defs>
       <use xlink:href="#DejaVuSans-2212"/>
       <use xlink:href="#DejaVuSans-32" x="83.789062"/>
      </g>
     </g>
    </g>
    <g id="xtick_5">
     <g id="line2d_9">
      <path d="M 405.233766 640.8 
L 405.233766 86.4 
" clip-path="url(#p809bce743d)" style="fill: none; stroke: #b0b0b0; stroke-width: 0.8; stroke-linecap: square"/>
     </g>
     <g id="line2d_10">
      <g>
       <use xlink:href="#md58ca268b5" x="405.233766" y="640.8" style="stroke: #000000; stroke-width: 0.8"/>
      </g>
     </g>
     <g id="text_5">
      <!-- −1 -->
      <g transform="translate(397.862672 655.398438) scale(0.1 -0.1)">
       <defs>
        <path id="DejaVuSans-31" d="M 794 531 
L 1825 531 
L 1825 4091 
L 703 3866 
L 703 4441 
L 1819 4666 
L 2450 4666 
L 2450 531 
L 3481 531 
L 3481 0 
L 794 0 
L 794 531 
z
" transform="scale(0.015625)"/>
       </defs>
       <use xlink:href="#DejaVuSans-2212"/>
       <use xlink:href="#DejaVuSans-31" x="83.789062"/>
      </g>
     </g>
    </g>
    <g id="xtick_6">
     <g id="line2d_11">
      <path d="M 477.701299 640.8 
L 477.701299 86.4 
" clip-path="url(#p809bce743d)" style="fill: none; stroke: #b0b0b0; stroke-width: 0.8; stroke-linecap: square"/>
     </g>
     <g id="line2d_12">
      <g>
       <use xlink:href="#md58ca268b5" x="477.701299" y="640.8" style="stroke: #000000; stroke-width: 0.8"/>
      </g>
     </g>
     <g id="text_6">
      <!-- 0 -->
      <g transform="translate(474.520049 655.398438) scale(0.1 -0.1)">
       <defs>
        <path id="DejaVuSans-30" d="M 2034 4250 
Q 1547 4250 1301 3770 
Q 1056 3291 1056 2328 
Q 1056 1369 1301 889 
Q 1547 409 2034 409 
Q 2525 409 2770 889 
Q 3016 1369 3016 2328 
Q 3016 3291 2770 3770 
Q 2525 4250 2034 4250 
z
M 2034 4750 
Q 2819 4750 3233 4129 
Q 3647 3509 3647 2328 
Q 3647 1150 3233 529 
Q 2819 -91 2034 -91 
Q 1250 -91 836 529 
Q 422 1150 422 2328 
Q 422 3509 836 4129 
Q 1250 4750 2034 4750 
z
" transform="scale(0.015625)"/>
       </defs>
       <use xlink:href="#DejaVuSans-30"/>
      </g>
     </g>
    </g>
    <g id="xtick_7">
     <g id="line2d_13">
      <path d="M 550.168831 640.8 
L 550.168831 86.4 
" clip-path="url(#p809bce743d)" style="fill: none; stroke: #b0b0b0; stroke-width: 0.8; stroke-linecap: square"/>
     </g>
     <g id="line2d_14">
      <g>
       <use xlink:href="#md58ca268b5" x="550.168831" y="640.8" style="stroke: #000000; stroke-width: 0.8"/>
      </g>
     </g>
     <g id="text_7">
      <!-- 1 -->
      <g transform="translate(546.987581 655.398438) scale(0.1 -0.1)">
       <use xlink:href="#DejaVuSans-31"/>
      </g>
     </g>
    </g>
    <g id="xtick_8">
     <g id="line2d_15">
      <path d="M 622.636364 640.8 
L 622.636364 86.4 
" clip-path="url(#p809bce743d)" style="fill: none; stroke: #b0b0b0; stroke-width: 0.8; stroke-linecap: square"/>
     </g>
     <g id="line2d_16">
      <g>
       <use xlink:href="#md58ca268b5" x="622.636364" y="640.8" style="stroke: #000000; stroke-width: 0.8"/>
      </g>
     </g>
     <g id="text_8">
      <!-- 2 -->
      <g transform="translate(619.455114 655.398438) scale(0.1 -0.1)">
       <use xlink:href="#DejaVuSans-32"/>
      </g>
     </g>
    </g>
    <g id="text_9">
     <!-- SNR [dB] -->
     <g transform="translate(346.515625 669.076563) scale(0.1 -0.1)">
      <defs>
       <path id="DejaVuSans-53" d="M 3425 4513 
L 3425 3897 
Q 3066 4069 2747 4153 
Q 2428 4238 2131 4238 
Q 1616 4238 1336 4038 
Q 1056 3838 1056 3469 
Q 1056 3159 1242 3001 
Q 1428 2844 1947 2747 
L 2328 2669 
Q 3034 2534 3370 2195 
Q 3706 1856 3706 1288 
Q 3706 609 3251 259 
Q 2797 -91 1919 -91 
Q 1588 -91 1214 -16 
Q 841 59 441 206 
L 441 856 
Q 825 641 1194 531 
Q 1563 422 1919 422 
Q 2459 422 2753 634 
Q 3047 847 3047 1241 
Q 3047 1584 2836 1778 
Q 2625 1972 2144 2069 
L 1759 2144 
Q 1053 2284 737 2584 
Q 422 2884 422 3419 
Q 422 4038 858 4394 
Q 1294 4750 2059 4750 
Q 2388 4750 2728 4690 
Q 3069 4631 3425 4513 
z
" transform="scale(0.015625)"/>
       <path id="DejaVuSans-4e" d="M 628 4666 
L 1478 4666 
L 3547 763 
L 3547 4666 
L 4159 4666 
L 4159 0 
L 3309 0 
L 1241 3903 
L 1241 0 
L 628 0 
L 628 4666 
z
" transform="scale(0.015625)"/>
       <path id="DejaVuSans-52" d="M 2841 2188 
Q 3044 2119 3236 1894 
Q 3428 1669 3622 1275 
L 4263 0 
L 3584 0 
L 2988 1197 
Q 2756 1666 2539 1819 
Q 2322 1972 1947 1972 
L 1259 1972 
L 1259 0 
L 628 0 
L 628 4666 
L 2053 4666 
Q 2853 4666 3247 4331 
Q 3641 3997 3641 3322 
Q 3641 2881 3436 2590 
Q 3231 2300 2841 2188 
z
M 1259 4147 
L 1259 2491 
L 2053 2491 
Q 2509 2491 2742 2702 
Q 2975 2913 2975 3322 
Q 2975 3731 2742 3939 
Q 2509 4147 2053 4147 
L 1259 4147 
z
" transform="scale(0.015625)"/>
       <path id="DejaVuSans-20" transform="scale(0.015625)"/>
       <path id="DejaVuSans-5b" d="M 550 4863 
L 1875 4863 
L 1875 4416 
L 1125 4416 
L 1125 -397 
L 1875 -397 
L 1875 -844 
L 550 -844 
L 550 4863 
z
" transform="scale(0.015625)"/>
       <path id="DejaVuSans-64" d="M 2906 2969 
L 2906 4863 
L 3481 4863 
L 3481 0 
L 2906 0 
L 2906 525 
Q 2725 213 2448 61 
Q 2172 -91 1784 -91 
Q 1150 -91 751 415 
Q 353 922 353 1747 
Q 353 2572 751 3078 
Q 1150 3584 1784 3584 
Q 2172 3584 2448 3432 
Q 2725 3281 2906 2969 
z
M 947 1747 
Q 947 1113 1208 752 
Q 1469 391 1925 391 
Q 2381 391 2643 752 
Q 2906 1113 2906 1747 
Q 2906 2381 2643 2742 
Q 2381 3103 1925 3103 
Q 1469 3103 1208 2742 
Q 947 2381 947 1747 
z
" transform="scale(0.015625)"/>
       <path id="DejaVuSans-42" d="M 1259 2228 
L 1259 519 
L 2272 519 
Q 2781 519 3026 730 
Q 3272 941 3272 1375 
Q 3272 1813 3026 2020 
Q 2781 2228 2272 2228 
L 1259 2228 
z
M 1259 4147 
L 1259 2741 
L 2194 2741 
Q 2656 2741 2882 2914 
Q 3109 3088 3109 3444 
Q 3109 3797 2882 3972 
Q 2656 4147 2194 4147 
L 1259 4147 
z
M 628 4666 
L 2241 4666 
Q 2963 4666 3353 4366 
Q 3744 4066 3744 3513 
Q 3744 3084 3544 2831 
Q 3344 2578 2956 2516 
Q 3422 2416 3680 2098 
Q 3938 1781 3938 1306 
Q 3938 681 3513 340 
Q 3088 0 2303 0 
L 628 0 
L 628 4666 
z
" transform="scale(0.015625)"/>
       <path id="DejaVuSans-5d" d="M 1947 4863 
L 1947 -844 
L 622 -844 
L 622 -397 
L 1369 -397 
L 1369 4416 
L 622 4416 
L 622 4863 
L 1947 4863 
z
" transform="scale(0.015625)"/>
      </defs>
      <use xlink:href="#DejaVuSans-53"/>
      <use xlink:href="#DejaVuSans-4e" x="63.476562"/>
      <use xlink:href="#DejaVuSans-52" x="138.28125"/>
      <use xlink:href="#DejaVuSans-20" x="207.763672"/>
      <use xlink:href="#DejaVuSans-5b" x="239.550781"/>
      <use xlink:href="#DejaVuSans-64" x="278.564453"/>
      <use xlink:href="#DejaVuSans-42" x="342.041016"/>
      <use xlink:href="#DejaVuSans-5d" x="410.644531"/>
     </g>
    </g>
   </g>
   <g id="matplotlib.axis_2">
    <g id="ytick_1">
     <g id="line2d_17">
      <path d="M 90 307.017941 
L 648 307.017941 
" clip-path="url(#p809bce743d)" style="fill: none; stroke: #b0b0b0; stroke-width: 0.8; stroke-linecap: square"/>
     </g>
     <g id="line2d_18">
      <defs>
       <path id="m24d5702a9f" d="M 0 0 
L -3.5 0 
" style="stroke: #000000; stroke-width: 0.8"/>
      </defs>
      <g>
       <use xlink:href="#m24d5702a9f" x="90" y="307.017941" style="stroke: #000000; stroke-width: 0.8"/>
      </g>
     </g>
     <g id="text_10">
      <!-- $\mathdefault{10^{-1}}$ -->
      <g transform="translate(59.5 310.81716) scale(0.1 -0.1)">
       <use xlink:href="#DejaVuSans-31" transform="translate(0 0.684375)"/>
       <use xlink:href="#DejaVuSans-30" transform="translate(63.623047 0.684375)"/>
       <use xlink:href="#DejaVuSans-2212" transform="translate(128.203125 38.965625) scale(0.7)"/>
       <use xlink:href="#DejaVuSans-31" transform="translate(186.855469 38.965625) scale(0.7)"/>
      </g>
     </g>
    </g>
    <g id="ytick_2">
     <g id="line2d_19">
      <path d="M 90 596.901917 
L 648 596.901917 
" clip-path="url(#p809bce743d)" style="fill: none; stroke-dasharray: 2.96,1.28; stroke-dashoffset: 0; stroke: #b0b0b0; stroke-width: 0.8"/>
     </g>
     <g id="line2d_20">
      <defs>
       <path id="m9100705290" d="M 0 0 
L -2 0 
" style="stroke: #000000; stroke-width: 0.6"/>
      </defs>
      <g>
       <use xlink:href="#m9100705290" x="90" y="596.901917" style="stroke: #000000; stroke-width: 0.6"/>
      </g>
     </g>
     <g id="text_11">
      <!-- $\mathdefault{3\times10^{-2}}$ -->
      <g transform="translate(42.5 600.701136) scale(0.1 -0.1)">
       <defs>
        <path id="DejaVuSans-d7" d="M 4488 3438 
L 3059 2003 
L 4488 575 
L 4116 197 
L 2681 1631 
L 1247 197 
L 878 575 
L 2303 2003 
L 878 3438 
L 1247 3816 
L 2681 2381 
L 4116 3816 
L 4488 3438 
z
" transform="scale(0.015625)"/>
       </defs>
       <use xlink:href="#DejaVuSans-33" transform="translate(0 0.765625)"/>
       <use xlink:href="#DejaVuSans-d7" transform="translate(83.105469 0.765625)"/>
       <use xlink:href="#DejaVuSans-31" transform="translate(186.376953 0.765625)"/>
       <use xlink:href="#DejaVuSans-30" transform="translate(250 0.765625)"/>
       <use xlink:href="#DejaVuSans-2212" transform="translate(314.580078 39.046875) scale(0.7)"/>
       <use xlink:href="#DejaVuSans-32" transform="translate(373.232422 39.046875) scale(0.7)"/>
      </g>
     </g>
    </g>
    <g id="ytick_3">
     <g id="line2d_21">
      <path d="M 90 527.635882 
L 648 527.635882 
" clip-path="url(#p809bce743d)" style="fill: none; stroke-dasharray: 2.96,1.28; stroke-dashoffset: 0; stroke: #b0b0b0; stroke-width: 0.8"/>
     </g>
     <g id="line2d_22">
      <g>
       <use xlink:href="#m9100705290" x="90" y="527.635882" style="stroke: #000000; stroke-width: 0.6"/>
      </g>
     </g>
     <g id="text_12">
      <!-- $\mathdefault{4\times10^{-2}}$ -->
      <g transform="translate(42.5 531.4351) scale(0.1 -0.1)">
       <use xlink:href="#DejaVuSans-34" transform="translate(0 0.765625)"/>
       <use xlink:href="#DejaVuSans-d7" transform="translate(83.105469 0.765625)"/>
       <use xlink:href="#DejaVuSans-31" transform="translate(186.376953 0.765625)"/>
       <use xlink:href="#DejaVuSans-30" transform="translate(250 0.765625)"/>
       <use xlink:href="#DejaVuSans-2212" transform="translate(314.580078 39.046875) scale(0.7)"/>
       <use xlink:href="#DejaVuSans-32" transform="translate(373.232422 39.046875) scale(0.7)"/>
      </g>
     </g>
    </g>
    <g id="ytick_4">
     <g id="line2d_23">
      <path d="M 90 473.90897 
L 648 473.90897 
" clip-path="url(#p809bce743d)" style="fill: none; stroke-dasharray: 2.96,1.28; stroke-dashoffset: 0; stroke: #b0b0b0; stroke-width: 0.8"/>
     </g>
     <g id="line2d_24">
      <g>
       <use xlink:href="#m9100705290" x="90" y="473.90897" style="stroke: #000000; stroke-width: 0.6"/>
      </g>
     </g>
    </g>
    <g id="ytick_5">
     <g id="line2d_25">
      <path d="M 90 430.010888 
L 648 430.010888 
" clip-path="url(#p809bce743d)" style="fill: none; stroke-dasharray: 2.96,1.28; stroke-dashoffset: 0; stroke: #b0b0b0; stroke-width: 0.8"/>
     </g>
     <g id="line2d_26">
      <g>
       <use xlink:href="#m9100705290" x="90" y="430.010888" style="stroke: #000000; stroke-width: 0.6"/>
      </g>
     </g>
     <g id="text_13">
      <!-- $\mathdefault{6\times10^{-2}}$ -->
      <g transform="translate(42.5 433.810106) scale(0.1 -0.1)">
       <defs>
        <path id="DejaVuSans-36" d="M 2113 2584 
Q 1688 2584 1439 2293 
Q 1191 2003 1191 1497 
Q 1191 994 1439 701 
Q 1688 409 2113 409 
Q 2538 409 2786 701 
Q 3034 994 3034 1497 
Q 3034 2003 2786 2293 
Q 2538 2584 2113 2584 
z
M 3366 4563 
L 3366 3988 
Q 3128 4100 2886 4159 
Q 2644 4219 2406 4219 
Q 1781 4219 1451 3797 
Q 1122 3375 1075 2522 
Q 1259 2794 1537 2939 
Q 1816 3084 2150 3084 
Q 2853 3084 3261 2657 
Q 3669 2231 3669 1497 
Q 3669 778 3244 343 
Q 2819 -91 2113 -91 
Q 1303 -91 875 529 
Q 447 1150 447 2328 
Q 447 3434 972 4092 
Q 1497 4750 2381 4750 
Q 2619 4750 2861 4703 
Q 3103 4656 3366 4563 
z
" transform="scale(0.015625)"/>
       </defs>
       <use xlink:href="#DejaVuSans-36" transform="translate(0 0.765625)"/>
       <use xlink:href="#DejaVuSans-d7" transform="translate(83.105469 0.765625)"/>
       <use xlink:href="#DejaVuSans-31" transform="translate(186.376953 0.765625)"/>
       <use xlink:href="#DejaVuSans-30" transform="translate(250 0.765625)"/>
       <use xlink:href="#DejaVuSans-2212" transform="translate(314.580078 39.046875) scale(0.7)"/>
       <use xlink:href="#DejaVuSans-32" transform="translate(373.232422 39.046875) scale(0.7)"/>
      </g>
     </g>
    </g>
    <g id="ytick_6">
     <g id="line2d_27">
      <path d="M 90 392.895587 
L 648 392.895587 
" clip-path="url(#p809bce743d)" style="fill: none; stroke-dasharray: 2.96,1.28; stroke-dashoffset: 0; stroke: #b0b0b0; stroke-width: 0.8"/>
     </g>
     <g id="line2d_28">
      <g>
       <use xlink:href="#m9100705290" x="90" y="392.895587" style="stroke: #000000; stroke-width: 0.6"/>
      </g>
     </g>
    </g>
    <g id="ytick_7">
     <g id="line2d_29">
      <path d="M 90 360.744852 
L 648 360.744852 
" clip-path="url(#p809bce743d)" style="fill: none; stroke-dasharray: 2.96,1.28; stroke-dashoffset: 0; stroke: #b0b0b0; stroke-width: 0.8"/>
     </g>
     <g id="line2d_30">
      <g>
       <use xlink:href="#m9100705290" x="90" y="360.744852" style="stroke: #000000; stroke-width: 0.6"/>
      </g>
     </g>
    </g>
    <g id="ytick_8">
     <g id="line2d_31">
      <path d="M 90 332.385894 
L 648 332.385894 
" clip-path="url(#p809bce743d)" style="fill: none; stroke-dasharray: 2.96,1.28; stroke-dashoffset: 0; stroke: #b0b0b0; stroke-width: 0.8"/>
     </g>
     <g id="line2d_32">
      <g>
       <use xlink:href="#m9100705290" x="90" y="332.385894" style="stroke: #000000; stroke-width: 0.6"/>
      </g>
     </g>
    </g>
    <g id="ytick_9">
     <g id="line2d_33">
      <path d="M 90 140.126911 
L 648 140.126911 
" clip-path="url(#p809bce743d)" style="fill: none; stroke-dasharray: 2.96,1.28; stroke-dashoffset: 0; stroke: #b0b0b0; stroke-width: 0.8"/>
     </g>
     <g id="line2d_34">
      <g>
       <use xlink:href="#m9100705290" x="90" y="140.126911" style="stroke: #000000; stroke-width: 0.6"/>
      </g>
     </g>
     <g id="text_14">
      <!-- $\mathdefault{2\times10^{-1}}$ -->
      <g transform="translate(42.5 143.92613) scale(0.1 -0.1)">
       <use xlink:href="#DejaVuSans-32" transform="translate(0 0.684375)"/>
       <use xlink:href="#DejaVuSans-d7" transform="translate(83.105469 0.684375)"/>
       <use xlink:href="#DejaVuSans-31" transform="translate(186.376953 0.684375)"/>
       <use xlink:href="#DejaVuSans-30" transform="translate(250 0.684375)"/>
       <use xlink:href="#DejaVuSans-2212" transform="translate(314.580078 38.965625) scale(0.7)"/>
       <use xlink:href="#DejaVuSans-31" transform="translate(373.232422 38.965625) scale(0.7)"/>
      </g>
     </g>
    </g>
    <g id="text_15">
     <!-- Bit Error Rate (BER) -->
     <g transform="translate(36.420312 412.760156) rotate(-90) scale(0.1 -0.1)">
      <defs>
       <path id="DejaVuSans-69" d="M 603 3500 
L 1178 3500 
L 1178 0 
L 603 0 
L 603 3500 
z
M 603 4863 
L 1178 4863 
L 1178 4134 
L 603 4134 
L 603 4863 
z
" transform="scale(0.015625)"/>
       <path id="DejaVuSans-74" d="M 1172 4494 
L 1172 3500 
L 2356 3500 
L 2356 3053 
L 1172 3053 
L 1172 1153 
Q 1172 725 1289 603 
Q 1406 481 1766 481 
L 2356 481 
L 2356 0 
L 1766 0 
Q 1100 0 847 248 
Q 594 497 594 1153 
L 594 3053 
L 172 3053 
L 172 3500 
L 594 3500 
L 594 4494 
L 1172 4494 
z
" transform="scale(0.015625)"/>
       <path id="DejaVuSans-45" d="M 628 4666 
L 3578 4666 
L 3578 4134 
L 1259 4134 
L 1259 2753 
L 3481 2753 
L 3481 2222 
L 1259 2222 
L 1259 531 
L 3634 531 
L 3634 0 
L 628 0 
L 628 4666 
z
" transform="scale(0.015625)"/>
       <path id="DejaVuSans-72" d="M 2631 2963 
Q 2534 3019 2420 3045 
Q 2306 3072 2169 3072 
Q 1681 3072 1420 2755 
Q 1159 2438 1159 1844 
L 1159 0 
L 581 0 
L 581 3500 
L 1159 3500 
L 1159 2956 
Q 1341 3275 1631 3429 
Q 1922 3584 2338 3584 
Q 2397 3584 2469 3576 
Q 2541 3569 2628 3553 
L 2631 2963 
z
" transform="scale(0.015625)"/>
       <path id="DejaVuSans-6f" d="M 1959 3097 
Q 1497 3097 1228 2736 
Q 959 2375 959 1747 
Q 959 1119 1226 758 
Q 1494 397 1959 397 
Q 2419 397 2687 759 
Q 2956 1122 2956 1747 
Q 2956 2369 2687 2733 
Q 2419 3097 1959 3097 
z
M 1959 3584 
Q 2709 3584 3137 3096 
Q 3566 2609 3566 1747 
Q 3566 888 3137 398 
Q 2709 -91 1959 -91 
Q 1206 -91 779 398 
Q 353 888 353 1747 
Q 353 2609 779 3096 
Q 1206 3584 1959 3584 
z
" transform="scale(0.015625)"/>
       <path id="DejaVuSans-61" d="M 2194 1759 
Q 1497 1759 1228 1600 
Q 959 1441 959 1056 
Q 959 750 1161 570 
Q 1363 391 1709 391 
Q 2188 391 2477 730 
Q 2766 1069 2766 1631 
L 2766 1759 
L 2194 1759 
z
M 3341 1997 
L 3341 0 
L 2766 0 
L 2766 531 
Q 2569 213 2275 61 
Q 1981 -91 1556 -91 
Q 1019 -91 701 211 
Q 384 513 384 1019 
Q 384 1609 779 1909 
Q 1175 2209 1959 2209 
L 2766 2209 
L 2766 2266 
Q 2766 2663 2505 2880 
Q 2244 3097 1772 3097 
Q 1472 3097 1187 3025 
Q 903 2953 641 2809 
L 641 3341 
Q 956 3463 1253 3523 
Q 1550 3584 1831 3584 
Q 2591 3584 2966 3190 
Q 3341 2797 3341 1997 
z
" transform="scale(0.015625)"/>
       <path id="DejaVuSans-65" d="M 3597 1894 
L 3597 1613 
L 953 1613 
Q 991 1019 1311 708 
Q 1631 397 2203 397 
Q 2534 397 2845 478 
Q 3156 559 3463 722 
L 3463 178 
Q 3153 47 2828 -22 
Q 2503 -91 2169 -91 
Q 1331 -91 842 396 
Q 353 884 353 1716 
Q 353 2575 817 3079 
Q 1281 3584 2069 3584 
Q 2775 3584 3186 3129 
Q 3597 2675 3597 1894 
z
M 3022 2063 
Q 3016 2534 2758 2815 
Q 2500 3097 2075 3097 
Q 1594 3097 1305 2825 
Q 1016 2553 972 2059 
L 3022 2063 
z
" transform="scale(0.015625)"/>
       <path id="DejaVuSans-28" d="M 1984 4856 
Q 1566 4138 1362 3434 
Q 1159 2731 1159 2009 
Q 1159 1288 1364 580 
Q 1569 -128 1984 -844 
L 1484 -844 
Q 1016 -109 783 600 
Q 550 1309 550 2009 
Q 550 2706 781 3412 
Q 1013 4119 1484 4856 
L 1984 4856 
z
" transform="scale(0.015625)"/>
       <path id="DejaVuSans-29" d="M 513 4856 
L 1013 4856 
Q 1481 4119 1714 3412 
Q 1947 2706 1947 2009 
Q 1947 1309 1714 600 
Q 1481 -109 1013 -844 
L 513 -844 
Q 928 -128 1133 580 
Q 1338 1288 1338 2009 
Q 1338 2731 1133 3434 
Q 928 4138 513 4856 
z
" transform="scale(0.015625)"/>
      </defs>
      <use xlink:href="#DejaVuSans-42"/>
      <use xlink:href="#DejaVuSans-69" x="68.603516"/>
      <use xlink:href="#DejaVuSans-74" x="96.386719"/>
      <use xlink:href="#DejaVuSans-20" x="135.595703"/>
      <use xlink:href="#DejaVuSans-45" x="167.382812"/>
      <use xlink:href="#DejaVuSans-72" x="230.566406"/>
      <use xlink:href="#DejaVuSans-72" x="269.929688"/>
      <use xlink:href="#DejaVuSans-6f" x="308.792969"/>
      <use xlink:href="#DejaVuSans-72" x="369.974609"/>
      <use xlink:href="#DejaVuSans-20" x="411.087891"/>
      <use xlink:href="#DejaVuSans-52" x="442.875"/>
      <use xlink:href="#DejaVuSans-61" x="510.107422"/>
      <use xlink:href="#DejaVuSans-74" x="571.386719"/>
      <use xlink:href="#DejaVuSans-65" x="610.595703"/>
      <use xlink:href="#DejaVuSans-20" x="672.119141"/>
      <use xlink:href="#DejaVuSans-28" x="703.90625"/>
      <use xlink:href="#DejaVuSans-42" x="742.919922"/>
      <use xlink:href="#DejaVuSans-45" x="811.523438"/>
      <use xlink:href="#DejaVuSans-52" x="874.707031"/>
      <use xlink:href="#DejaVuSans-29" x="944.189453"/>
     </g>
    </g>
   </g>
   <g id="line2d_35">
    <path d="M 115.363636 120.326209 
L 171.727273 147.106323 
L 228.090909 167.413383 
L 284.454545 211.697011 
L 340.818182 221.140294 
L 397.181818 310.482358 
L 453.545455 383.263389 
L 509.909091 608.649265 
L 566.272727 608.649265 
L 585.244676 721 
" clip-path="url(#p809bce743d)" style="fill: none; stroke: #ff0000; stroke-width: 1.5; stroke-linecap: square"/>
    <defs>
     <path id="ma0a2403734" d="M 0 1.5 
C 0.397805 1.5 0.77937 1.341951 1.06066 1.06066 
C 1.341951 0.77937 1.5 0.397805 1.5 0 
C 1.5 -0.397805 1.341951 -0.77937 1.06066 -1.06066 
C 0.77937 -1.341951 0.397805 -1.5 0 -1.5 
C -0.397805 -1.5 -0.77937 -1.341951 -1.06066 -1.06066 
C -1.341951 -0.77937 -1.5 -0.397805 -1.5 0 
C -1.5 0.397805 -1.341951 0.77937 -1.06066 1.06066 
C -0.77937 1.341951 -0.397805 1.5 0 1.5 
z
" style="stroke: #ff0000"/>
    </defs>
    <g clip-path="url(#p809bce743d)">
     <use xlink:href="#ma0a2403734" x="115.363636" y="120.326209" style="fill: #ff0000; stroke: #ff0000"/>
     <use xlink:href="#ma0a2403734" x="171.727273" y="147.106323" style="fill: #ff0000; stroke: #ff0000"/>
     <use xlink:href="#ma0a2403734" x="228.090909" y="167.413383" style="fill: #ff0000; stroke: #ff0000"/>
     <use xlink:href="#ma0a2403734" x="284.454545" y="211.697011" style="fill: #ff0000; stroke: #ff0000"/>
     <use xlink:href="#ma0a2403734" x="340.818182" y="221.140294" style="fill: #ff0000; stroke: #ff0000"/>
     <use xlink:href="#ma0a2403734" x="397.181818" y="310.482358" style="fill: #ff0000; stroke: #ff0000"/>
     <use xlink:href="#ma0a2403734" x="453.545455" y="383.263389" style="fill: #ff0000; stroke: #ff0000"/>
     <use xlink:href="#ma0a2403734" x="509.909091" y="608.649265" style="fill: #ff0000; stroke: #ff0000"/>
     <use xlink:href="#ma0a2403734" x="566.272727" y="608.649265" style="fill: #ff0000; stroke: #ff0000"/>
     <use xlink:href="#ma0a2403734" x="622.636364" y="942.431324" style="fill: #ff0000; stroke: #ff0000"/>
    </g>
   </g>
   <g id="line2d_36">
    <path d="M 115.363636 141.852889 
L 171.727273 161.703087 
L 228.090909 187.489411 
L 284.454545 246.508247 
L 340.818182 251.919101 
L 397.181818 336.238342 
L 453.545455 454.108268 
L 509.909091 712.3701 
L 566.272727 712.3701 
L 567.986726 721 
" clip-path="url(#p809bce743d)" style="fill: none; stroke: #008000; stroke-width: 1.5; stroke-linecap: square"/>
    <defs>
     <path id="ma49f2cbdbb" d="M 0 1.5 
C 0.397805 1.5 0.77937 1.341951 1.06066 1.06066 
C 1.341951 0.77937 1.5 0.397805 1.5 0 
C 1.5 -0.397805 1.341951 -0.77937 1.06066 -1.06066 
C 0.77937 -1.341951 0.397805 -1.5 0 -1.5 
C -0.397805 -1.5 -0.77937 -1.341951 -1.06066 -1.06066 
C -1.341951 -0.77937 -1.5 -0.397805 -1.5 0 
C -1.5 0.397805 -1.341951 0.77937 -1.06066 1.06066 
C -0.77937 1.341951 -0.397805 1.5 0 1.5 
z
" style="stroke: #008000"/>
    </defs>
    <g clip-path="url(#p809bce743d)">
     <use xlink:href="#ma49f2cbdbb" x="115.363636" y="141.852889" style="fill: #008000; stroke: #008000"/>
     <use xlink:href="#ma49f2cbdbb" x="171.727273" y="161.703087" style="fill: #008000; stroke: #008000"/>
     <use xlink:href="#ma49f2cbdbb" x="228.090909" y="187.489411" style="fill: #008000; stroke: #008000"/>
     <use xlink:href="#ma49f2cbdbb" x="284.454545" y="246.508247" style="fill: #008000; stroke: #008000"/>
     <use xlink:href="#ma49f2cbdbb" x="340.818182" y="251.919101" style="fill: #008000; stroke: #008000"/>
     <use xlink:href="#ma49f2cbdbb" x="397.181818" y="336.238342" style="fill: #008000; stroke: #008000"/>
     <use xlink:href="#ma49f2cbdbb" x="453.545455" y="454.108268" style="fill: #008000; stroke: #008000"/>
     <use xlink:href="#ma49f2cbdbb" x="509.909091" y="712.3701" style="fill: #008000; stroke: #008000"/>
     <use xlink:href="#ma49f2cbdbb" x="566.272727" y="712.3701" style="fill: #008000; stroke: #008000"/>
     <use xlink:href="#ma49f2cbdbb" x="622.636364" y="996.158235" style="fill: #008000; stroke: #008000"/>
    </g>
   </g>
   <g id="line2d_37">
    <path d="M 115.363636 143.591329 
L 171.727273 165.494864 
L 228.090909 204.849928 
L 284.454545 246.508247 
L 340.818182 249.198475 
L 397.181818 360.744852 
L 453.545455 447.854076 
L 509.909091 712.3701 
L 535.148285 721 
" clip-path="url(#p809bce743d)" style="fill: none; stroke: #bf00bf; stroke-width: 1.5; stroke-linecap: square"/>
    <defs>
     <path id="m18211c1149" d="M 0 1.5 
C 0.397805 1.5 0.77937 1.341951 1.06066 1.06066 
C 1.341951 0.77937 1.5 0.397805 1.5 0 
C 1.5 -0.397805 1.341951 -0.77937 1.06066 -1.06066 
C 0.77937 -1.341951 0.397805 -1.5 0 -1.5 
C -0.397805 -1.5 -0.77937 -1.341951 -1.06066 -1.06066 
C -1.341951 -0.77937 -1.5 -0.397805 -1.5 0 
C -1.5 0.397805 -1.341951 0.77937 -1.06066 1.06066 
C -0.77937 1.341951 -0.397805 1.5 0 1.5 
z
" style="stroke: #bf00bf"/>
    </defs>
    <g clip-path="url(#p809bce743d)">
     <use xlink:href="#m18211c1149" x="115.363636" y="143.591329" style="fill: #bf00bf; stroke: #bf00bf"/>
     <use xlink:href="#m18211c1149" x="171.727273" y="165.494864" style="fill: #bf00bf; stroke: #bf00bf"/>
     <use xlink:href="#m18211c1149" x="228.090909" y="204.849928" style="fill: #bf00bf; stroke: #bf00bf"/>
     <use xlink:href="#m18211c1149" x="284.454545" y="246.508247" style="fill: #bf00bf; stroke: #bf00bf"/>
     <use xlink:href="#m18211c1149" x="340.818182" y="249.198475" style="fill: #bf00bf; stroke: #bf00bf"/>
     <use xlink:href="#m18211c1149" x="397.181818" y="360.744852" style="fill: #bf00bf; stroke: #bf00bf"/>
     <use xlink:href="#m18211c1149" x="453.545455" y="447.854076" style="fill: #bf00bf; stroke: #bf00bf"/>
     <use xlink:href="#m18211c1149" x="509.909091" y="712.3701" style="fill: #bf00bf; stroke: #bf00bf"/>
     <use xlink:href="#m18211c1149" x="566.272727" y="731.642211" style="fill: #bf00bf; stroke: #bf00bf"/>
     <use xlink:href="#m18211c1149" x="622.636364" y="996.158235" style="fill: #bf00bf; stroke: #bf00bf"/>
    </g>
   </g>
   <g id="line2d_38">
    <path d="M 115.363636 143.591329 
L 171.727273 167.413383 
L 228.090909 207.110722 
L 284.454545 246.508247 
L 340.818182 251.919101 
L 397.181818 360.744852 
L 453.545455 447.854076 
L 509.909091 712.3701 
L 522.002261 721 
" clip-path="url(#p809bce743d)" style="fill: none; stroke: #00bfbf; stroke-width: 1.5; stroke-linecap: square"/>
    <defs>
     <path id="mfcf9b4f562" d="M 0 1.5 
C 0.397805 1.5 0.77937 1.341951 1.06066 1.06066 
C 1.341951 0.77937 1.5 0.397805 1.5 0 
C 1.5 -0.397805 1.341951 -0.77937 1.06066 -1.06066 
C 0.77937 -1.341951 0.397805 -1.5 0 -1.5 
C -0.397805 -1.5 -0.77937 -1.341951 -1.06066 -1.06066 
C -1.341951 -0.77937 -1.5 -0.397805 -1.5 0 
C -1.5 0.397805 -1.341951 0.77937 -1.06066 1.06066 
C -0.77937 1.341951 -0.397805 1.5 0 1.5 
z
" style="stroke: #00bfbf"/>
    </defs>
    <g clip-path="url(#p809bce743d)">
     <use xlink:href="#mfcf9b4f562" x="115.363636" y="143.591329" style="fill: #00bfbf; stroke: #00bfbf"/>
     <use xlink:href="#mfcf9b4f562" x="171.727273" y="167.413383" style="fill: #00bfbf; stroke: #00bfbf"/>
     <use xlink:href="#mfcf9b4f562" x="228.090909" y="207.110722" style="fill: #00bfbf; stroke: #00bfbf"/>
     <use xlink:href="#mfcf9b4f562" x="284.454545" y="246.508247" style="fill: #00bfbf; stroke: #00bfbf"/>
     <use xlink:href="#mfcf9b4f562" x="340.818182" y="251.919101" style="fill: #00bfbf; stroke: #00bfbf"/>
     <use xlink:href="#mfcf9b4f562" x="397.181818" y="360.744852" style="fill: #00bfbf; stroke: #00bfbf"/>
     <use xlink:href="#mfcf9b4f562" x="453.545455" y="447.854076" style="fill: #00bfbf; stroke: #00bfbf"/>
     <use xlink:href="#mfcf9b4f562" x="509.909091" y="712.3701" style="fill: #00bfbf; stroke: #00bfbf"/>
     <use xlink:href="#mfcf9b4f562" x="566.272727" y="752.59219" style="fill: #00bfbf; stroke: #00bfbf"/>
     <use xlink:href="#mfcf9b4f562" x="622.636364" y="996.158235" style="fill: #00bfbf; stroke: #00bfbf"/>
    </g>
   </g>
   <g id="line2d_39">
    <path d="M 115.363636 143.591329 
L 171.727273 167.413383 
L 228.090909 209.392947 
L 284.454545 246.508247 
L 340.818182 251.919101 
L 397.181818 360.744852 
L 453.545455 460.529258 
L 509.909091 712.3701 
L 522.002261 721 
" clip-path="url(#p809bce743d)" style="fill: none; stroke: #bfbf00; stroke-width: 1.5; stroke-linecap: square"/>
    <defs>
     <path id="m017194120f" d="M 0 1.5 
C 0.397805 1.5 0.77937 1.341951 1.06066 1.06066 
C 1.341951 0.77937 1.5 0.397805 1.5 0 
C 1.5 -0.397805 1.341951 -0.77937 1.06066 -1.06066 
C 0.77937 -1.341951 0.397805 -1.5 0 -1.5 
C -0.397805 -1.5 -0.77937 -1.341951 -1.06066 -1.06066 
C -1.341951 -0.77937 -1.5 -0.397805 -1.5 0 
C -1.5 0.397805 -1.341951 0.77937 -1.06066 1.06066 
C -0.77937 1.341951 -0.397805 1.5 0 1.5 
z
" style="stroke: #bfbf00"/>
    </defs>
    <g clip-path="url(#p809bce743d)">
     <use xlink:href="#m017194120f" x="115.363636" y="143.591329" style="fill: #bfbf00; stroke: #bfbf00"/>
     <use xlink:href="#m017194120f" x="171.727273" y="167.413383" style="fill: #bfbf00; stroke: #bfbf00"/>
     <use xlink:href="#m017194120f" x="228.090909" y="209.392947" style="fill: #bfbf00; stroke: #bfbf00"/>
     <use xlink:href="#m017194120f" x="284.454545" y="246.508247" style="fill: #bfbf00; stroke: #bfbf00"/>
     <use xlink:href="#m017194120f" x="340.818182" y="251.919101" style="fill: #bfbf00; stroke: #bfbf00"/>
     <use xlink:href="#m017194120f" x="397.181818" y="360.744852" style="fill: #bfbf00; stroke: #bfbf00"/>
     <use xlink:href="#m017194120f" x="453.545455" y="460.529258" style="fill: #bfbf00; stroke: #bfbf00"/>
     <use xlink:href="#m017194120f" x="509.909091" y="712.3701" style="fill: #bfbf00; stroke: #bfbf00"/>
     <use xlink:href="#m017194120f" x="566.272727" y="752.59219" style="fill: #bfbf00; stroke: #bfbf00"/>
     <use xlink:href="#m017194120f" x="622.636364" y="996.158235" style="fill: #bfbf00; stroke: #bfbf00"/>
    </g>
   </g>
   <g id="line2d_40">
    <path d="M 115.363636 66.599298 
L 171.727273 71.722318 
L 228.090909 66.599298 
L 284.454545 87.779791 
L 340.818182 107.976176 
L 397.181818 145.342412 
L 453.545455 200.391044 
L 509.909091 233.490327 
L 566.272727 280.963046 
L 622.636364 321.185136 
" clip-path="url(#p809bce743d)" style="fill: none; stroke: #0000ff; stroke-width: 1.5; stroke-linecap: square"/>
    <defs>
     <path id="m1b154a43cc" d="M 0 1.5 
C 0.397805 1.5 0.77937 1.341951 1.06066 1.06066 
C 1.341951 0.77937 1.5 0.397805 1.5 0 
C 1.5 -0.397805 1.341951 -0.77937 1.06066 -1.06066 
C 0.77937 -1.341951 0.397805 -1.5 0 -1.5 
C -0.397805 -1.5 -0.77937 -1.341951 -1.06066 -1.06066 
C -1.341951 -0.77937 -1.5 -0.397805 -1.5 0 
C -1.5 0.397805 -1.341951 0.77937 -1.06066 1.06066 
C -0.77937 1.341951 -0.397805 1.5 0 1.5 
z
" style="stroke: #0000ff"/>
    </defs>
    <g clip-path="url(#p809bce743d)">
     <use xlink:href="#m1b154a43cc" x="115.363636" y="66.599298" style="fill: #0000ff; stroke: #0000ff"/>
     <use xlink:href="#m1b154a43cc" x="171.727273" y="71.722318" style="fill: #0000ff; stroke: #0000ff"/>
     <use xlink:href="#m1b154a43cc" x="228.090909" y="66.599298" style="fill: #0000ff; stroke: #0000ff"/>
     <use xlink:href="#m1b154a43cc" x="284.454545" y="87.779791" style="fill: #0000ff; stroke: #0000ff"/>
     <use xlink:href="#m1b154a43cc" x="340.818182" y="107.976176" style="fill: #0000ff; stroke: #0000ff"/>
     <use xlink:href="#m1b154a43cc" x="397.181818" y="145.342412" style="fill: #0000ff; stroke: #0000ff"/>
     <use xlink:href="#m1b154a43cc" x="453.545455" y="200.391044" style="fill: #0000ff; stroke: #0000ff"/>
     <use xlink:href="#m1b154a43cc" x="509.909091" y="233.490327" style="fill: #0000ff; stroke: #0000ff"/>
     <use xlink:href="#m1b154a43cc" x="566.272727" y="280.963046" style="fill: #0000ff; stroke: #0000ff"/>
     <use xlink:href="#m1b154a43cc" x="622.636364" y="321.185136" style="fill: #0000ff; stroke: #0000ff"/>
    </g>
   </g>
   <g id="patch_3">
    <path d="M 90 640.8 
L 90 86.4 
" style="fill: none; stroke: #000000; stroke-width: 0.8; stroke-linejoin: miter; stroke-linecap: square"/>
   </g>
   <g id="patch_4">
    <path d="M 648 640.8 
L 648 86.4 
" style="fill: none; stroke: #000000; stroke-width: 0.8; stroke-linejoin: miter; stroke-linecap: square"/>
   </g>
   <g id="patch_5">
    <path d="M 90 640.8 
L 648 640.8 
" style="fill: none; stroke: #000000; stroke-width: 0.8; stroke-linejoin: miter; stroke-linecap: square"/>
   </g>
   <g id="patch_6">
    <path d="M 90 86.4 
L 648 86.4 
" style="fill: none; stroke: #000000; stroke-width: 0.8; stroke-linejoin: miter; stroke-linecap: square"/>
   </g>
   <g id="text_16">
    <!-- Турбо код со рата на пренос 1/3, Информациски битови=7, Обиди=100 -->
    <g transform="translate(141.057187 80.4) scale(0.12 -0.12)">
     <defs>
      <path id="DejaVuSans-422" d="M -19 4666 
L 3928 4666 
L 3928 4134 
L 2272 4134 
L 2272 0 
L 1638 0 
L 1638 4134 
L -19 4134 
L -19 4666 
z
" transform="scale(0.015625)"/>
      <path id="DejaVuSans-443" d="M 2059 -325 
Q 1816 -950 1584 -1140 
Q 1353 -1331 966 -1331 
L 506 -1331 
L 506 -850 
L 844 -850 
Q 1081 -850 1212 -737 
Q 1344 -625 1503 -206 
L 1606 56 
L 191 3500 
L 800 3500 
L 1894 763 
L 2988 3500 
L 3597 3500 
L 2059 -325 
z
" transform="scale(0.015625)"/>
      <path id="DejaVuSans-440" d="M 1159 525 
L 1159 -1331 
L 581 -1331 
L 581 3500 
L 1159 3500 
L 1159 2969 
Q 1341 3281 1617 3432 
Q 1894 3584 2278 3584 
Q 2916 3584 3314 3078 
Q 3713 2572 3713 1747 
Q 3713 922 3314 415 
Q 2916 -91 2278 -91 
Q 1894 -91 1617 61 
Q 1341 213 1159 525 
z
M 3116 1747 
Q 3116 2381 2855 2742 
Q 2594 3103 2138 3103 
Q 1681 3103 1420 2742 
Q 1159 2381 1159 1747 
Q 1159 1113 1420 752 
Q 1681 391 2138 391 
Q 2594 391 2855 752 
Q 3116 1113 3116 1747 
z
" transform="scale(0.015625)"/>
      <path id="DejaVuSans-431" d="M 1991 3584 
Q 2741 3584 3169 3096 
Q 3597 2609 3597 1747 
Q 3597 888 3169 398 
Q 2741 -91 1991 -91 
Q 1238 -91 822 384 
Q 406 859 384 1747 
L 366 2463 
Q 350 2834 350 2963 
Q 350 3463 531 3831 
Q 816 4409 1308 4659 
Q 1800 4909 2625 4916 
Q 3006 4919 3175 4972 
L 3334 4516 
Q 3181 4453 3041 4450 
L 2259 4397 
Q 1866 4369 1628 4231 
Q 1006 3866 947 3388 
L 925 3213 
Q 1331 3584 1991 3584 
z
M 1991 3097 
Q 1528 3097 1259 2736 
Q 991 2375 991 1747 
Q 991 1119 1258 758 
Q 1525 397 1991 397 
Q 2450 397 2719 759 
Q 2988 1122 2988 1747 
Q 2988 2369 2719 2733 
Q 2450 3097 1991 3097 
z
" transform="scale(0.015625)"/>
      <path id="DejaVuSans-43e" d="M 1959 3097 
Q 1497 3097 1228 2736 
Q 959 2375 959 1747 
Q 959 1119 1226 758 
Q 1494 397 1959 397 
Q 2419 397 2687 759 
Q 2956 1122 2956 1747 
Q 2956 2369 2687 2733 
Q 2419 3097 1959 3097 
z
M 1959 3584 
Q 2709 3584 3137 3096 
Q 3566 2609 3566 1747 
Q 3566 888 3137 398 
Q 2709 -91 1959 -91 
Q 1206 -91 779 398 
Q 353 888 353 1747 
Q 353 2609 779 3096 
Q 1206 3584 1959 3584 
z
" transform="scale(0.015625)"/>
      <path id="DejaVuSans-43a" d="M 581 3500 
L 1153 3500 
L 1153 1856 
L 2775 3500 
L 3481 3500 
L 2144 2147 
L 3653 0 
L 3009 0 
L 1769 1766 
L 1153 1141 
L 1153 0 
L 581 0 
L 581 3500 
z
" transform="scale(0.015625)"/>
      <path id="DejaVuSans-434" d="M 1384 459 
L 3053 459 
L 3053 3041 
L 1844 3041 
L 1844 2603 
Q 1844 1316 1475 628 
L 1384 459 
z
M 550 459 
Q 834 584 959 850 
Q 1266 1509 1266 2838 
L 1266 3500 
L 3631 3500 
L 3631 459 
L 4091 459 
L 4091 -884 
L 3631 -884 
L 3631 0 
L 794 0 
L 794 -884 
L 334 -884 
L 334 459 
L 550 459 
z
" transform="scale(0.015625)"/>
      <path id="DejaVuSans-441" d="M 3122 3366 
L 3122 2828 
Q 2878 2963 2633 3030 
Q 2388 3097 2138 3097 
Q 1578 3097 1268 2742 
Q 959 2388 959 1747 
Q 959 1106 1268 751 
Q 1578 397 2138 397 
Q 2388 397 2633 464 
Q 2878 531 3122 666 
L 3122 134 
Q 2881 22 2623 -34 
Q 2366 -91 2075 -91 
Q 1284 -91 818 406 
Q 353 903 353 1747 
Q 353 2603 823 3093 
Q 1294 3584 2113 3584 
Q 2378 3584 2631 3529 
Q 2884 3475 3122 3366 
z
" transform="scale(0.015625)"/>
      <path id="DejaVuSans-430" d="M 2194 1759 
Q 1497 1759 1228 1600 
Q 959 1441 959 1056 
Q 959 750 1161 570 
Q 1363 391 1709 391 
Q 2188 391 2477 730 
Q 2766 1069 2766 1631 
L 2766 1759 
L 2194 1759 
z
M 3341 1997 
L 3341 0 
L 2766 0 
L 2766 531 
Q 2569 213 2275 61 
Q 1981 -91 1556 -91 
Q 1019 -91 701 211 
Q 384 513 384 1019 
Q 384 1609 779 1909 
Q 1175 2209 1959 2209 
L 2766 2209 
L 2766 2266 
Q 2766 2663 2505 2880 
Q 2244 3097 1772 3097 
Q 1472 3097 1187 3025 
Q 903 2953 641 2809 
L 641 3341 
Q 956 3463 1253 3523 
Q 1550 3584 1831 3584 
Q 2591 3584 2966 3190 
Q 3341 2797 3341 1997 
z
" transform="scale(0.015625)"/>
      <path id="DejaVuSans-442" d="M 188 3500 
L 3541 3500 
L 3541 3041 
L 2147 3041 
L 2147 0 
L 1581 0 
L 1581 3041 
L 188 3041 
L 188 3500 
z
" transform="scale(0.015625)"/>
      <path id="DejaVuSans-43d" d="M 581 3500 
L 1159 3500 
L 1159 2072 
L 3025 2072 
L 3025 3500 
L 3603 3500 
L 3603 0 
L 3025 0 
L 3025 1613 
L 1159 1613 
L 1159 0 
L 581 0 
L 581 3500 
z
" transform="scale(0.015625)"/>
      <path id="DejaVuSans-43f" d="M 3603 3500 
L 3603 0 
L 3025 0 
L 3025 3041 
L 1159 3041 
L 1159 0 
L 581 0 
L 581 3500 
L 3603 3500 
z
" transform="scale(0.015625)"/>
      <path id="DejaVuSans-435" d="M 3597 1894 
L 3597 1613 
L 953 1613 
Q 991 1019 1311 708 
Q 1631 397 2203 397 
Q 2534 397 2845 478 
Q 3156 559 3463 722 
L 3463 178 
Q 3153 47 2828 -22 
Q 2503 -91 2169 -91 
Q 1331 -91 842 396 
Q 353 884 353 1716 
Q 353 2575 817 3079 
Q 1281 3584 2069 3584 
Q 2775 3584 3186 3129 
Q 3597 2675 3597 1894 
z
M 3022 2063 
Q 3016 2534 2758 2815 
Q 2500 3097 2075 3097 
Q 1594 3097 1305 2825 
Q 1016 2553 972 2059 
L 3022 2063 
z
" transform="scale(0.015625)"/>
      <path id="DejaVuSans-2f" d="M 1625 4666 
L 2156 4666 
L 531 -594 
L 0 -594 
L 1625 4666 
z
" transform="scale(0.015625)"/>
      <path id="DejaVuSans-2c" d="M 750 794 
L 1409 794 
L 1409 256 
L 897 -744 
L 494 -744 
L 750 256 
L 750 794 
z
" transform="scale(0.015625)"/>
      <path id="DejaVuSans-418" d="M 4159 4666 
L 4159 0 
L 3547 0 
L 3547 3903 
L 1478 0 
L 628 0 
L 628 4666 
L 1241 4666 
L 1241 763 
L 3309 4666 
L 4159 4666 
z
" transform="scale(0.015625)"/>
      <path id="DejaVuSans-444" d="M 947 1747 
Q 947 1013 1173 702 
Q 1400 391 1784 391 
Q 2091 391 2447 916 
L 2447 2578 
Q 2091 3103 1784 3103 
Q 1400 3103 1173 2792 
Q 947 2481 947 1747 
z
M 2447 -1331 
L 2447 447 
Q 2269 153 2064 31 
Q 1859 -91 1600 -91 
Q 1078 -91 714 392 
Q 350 875 350 1734 
Q 350 2594 714 3089 
Q 1078 3584 1600 3584 
Q 1859 3584 2064 3465 
Q 2269 3347 2447 3053 
L 2447 4666 
L 3025 4666 
L 3025 3053 
Q 3203 3347 3408 3465 
Q 3613 3584 3872 3584 
Q 4394 3584 4758 3089 
Q 5122 2594 5122 1734 
Q 5122 875 4758 392 
Q 4394 -91 3872 -91 
Q 3613 -91 3408 31 
Q 3203 153 3025 447 
L 3025 -1331 
L 2447 -1331 
z
M 4525 1747 
Q 4525 2481 4298 2792 
Q 4072 3103 3688 3103 
Q 3381 3103 3025 2578 
L 3025 916 
Q 3381 391 3688 391 
Q 4072 391 4298 702 
Q 4525 1013 4525 1747 
z
" transform="scale(0.015625)"/>
      <path id="DejaVuSans-43c" d="M 581 3500 
L 1422 3500 
L 2416 1156 
L 3413 3500 
L 4247 3500 
L 4247 0 
L 3669 0 
L 3669 2950 
L 2703 672 
L 2128 672 
L 1159 2950 
L 1159 0 
L 581 0 
L 581 3500 
z
" transform="scale(0.015625)"/>
      <path id="DejaVuSans-446" d="M 3603 0 
L 581 0 
L 581 3500 
L 1159 3500 
L 1159 459 
L 3025 459 
L 3025 3500 
L 3603 3500 
L 3603 459 
L 4063 459 
L 4063 -884 
L 3603 -884 
L 3603 0 
z
" transform="scale(0.015625)"/>
      <path id="DejaVuSans-438" d="M 3578 3500 
L 3578 0 
L 3006 0 
L 3006 2809 
L 1319 0 
L 581 0 
L 581 3500 
L 1153 3500 
L 1153 697 
L 2838 3500 
L 3578 3500 
z
" transform="scale(0.015625)"/>
      <path id="DejaVuSans-432" d="M 1156 1613 
L 1156 459 
L 1975 459 
Q 2369 459 2575 607 
Q 2781 756 2781 1038 
Q 2781 1319 2575 1466 
Q 2369 1613 1975 1613 
L 1156 1613 
z
M 1156 3041 
L 1156 2072 
L 1913 2072 
Q 2238 2072 2444 2201 
Q 2650 2331 2650 2563 
Q 2650 2794 2444 2917 
Q 2238 3041 1913 3041 
L 1156 3041 
z
M 581 3500 
L 1950 3500 
Q 2566 3500 2897 3275 
Q 3228 3050 3228 2634 
Q 3228 2313 3059 2123 
Q 2891 1934 2559 1888 
Q 2956 1813 3175 1575 
Q 3394 1338 3394 981 
Q 3394 513 3033 256 
Q 2672 0 2003 0 
L 581 0 
L 581 3500 
z
" transform="scale(0.015625)"/>
      <path id="DejaVuSans-3d" d="M 678 2906 
L 4684 2906 
L 4684 2381 
L 678 2381 
L 678 2906 
z
M 678 1631 
L 4684 1631 
L 4684 1100 
L 678 1100 
L 678 1631 
z
" transform="scale(0.015625)"/>
      <path id="DejaVuSans-37" d="M 525 4666 
L 3525 4666 
L 3525 4397 
L 1831 0 
L 1172 0 
L 2766 4134 
L 525 4134 
L 525 4666 
z
" transform="scale(0.015625)"/>
      <path id="DejaVuSans-41e" d="M 2522 4238 
Q 1834 4238 1429 3725 
Q 1025 3213 1025 2328 
Q 1025 1447 1429 934 
Q 1834 422 2522 422 
Q 3209 422 3611 934 
Q 4013 1447 4013 2328 
Q 4013 3213 3611 3725 
Q 3209 4238 2522 4238 
z
M 2522 4750 
Q 3503 4750 4090 4092 
Q 4678 3434 4678 2328 
Q 4678 1225 4090 567 
Q 3503 -91 2522 -91 
Q 1538 -91 948 565 
Q 359 1222 359 2328 
Q 359 3434 948 4092 
Q 1538 4750 2522 4750 
z
" transform="scale(0.015625)"/>
     </defs>
     <use xlink:href="#DejaVuSans-422"/>
     <use xlink:href="#DejaVuSans-443" x="61.083984"/>
     <use xlink:href="#DejaVuSans-440" x="120.263672"/>
     <use xlink:href="#DejaVuSans-431" x="183.740234"/>
     <use xlink:href="#DejaVuSans-43e" x="245.410156"/>
     <use xlink:href="#DejaVuSans-20" x="306.591797"/>
     <use xlink:href="#DejaVuSans-43a" x="338.378906"/>
     <use xlink:href="#DejaVuSans-43e" x="398.779297"/>
     <use xlink:href="#DejaVuSans-434" x="459.960938"/>
     <use xlink:href="#DejaVuSans-20" x="529.101562"/>
     <use xlink:href="#DejaVuSans-441" x="560.888672"/>
     <use xlink:href="#DejaVuSans-43e" x="615.869141"/>
     <use xlink:href="#DejaVuSans-20" x="677.050781"/>
     <use xlink:href="#DejaVuSans-440" x="708.837891"/>
     <use xlink:href="#DejaVuSans-430" x="772.314453"/>
     <use xlink:href="#DejaVuSans-442" x="833.59375"/>
     <use xlink:href="#DejaVuSans-430" x="891.845703"/>
     <use xlink:href="#DejaVuSans-20" x="953.125"/>
     <use xlink:href="#DejaVuSans-43d" x="984.912109"/>
     <use xlink:href="#DejaVuSans-430" x="1050.292969"/>
     <use xlink:href="#DejaVuSans-20" x="1111.572266"/>
     <use xlink:href="#DejaVuSans-43f" x="1143.359375"/>
     <use xlink:href="#DejaVuSans-440" x="1208.740234"/>
     <use xlink:href="#DejaVuSans-435" x="1272.216797"/>
     <use xlink:href="#DejaVuSans-43d" x="1333.740234"/>
     <use xlink:href="#DejaVuSans-43e" x="1399.121094"/>
     <use xlink:href="#DejaVuSans-441" x="1460.302734"/>
     <use xlink:href="#DejaVuSans-20" x="1515.283203"/>
     <use xlink:href="#DejaVuSans-31" x="1547.070312"/>
     <use xlink:href="#DejaVuSans-2f" x="1610.693359"/>
     <use xlink:href="#DejaVuSans-33" x="1644.384766"/>
     <use xlink:href="#DejaVuSans-2c" x="1708.007812"/>
     <use xlink:href="#DejaVuSans-20" x="1739.794922"/>
     <use xlink:href="#DejaVuSans-418" x="1771.582031"/>
     <use xlink:href="#DejaVuSans-43d" x="1846.386719"/>
     <use xlink:href="#DejaVuSans-444" x="1911.767578"/>
     <use xlink:href="#DejaVuSans-43e" x="1997.265625"/>
     <use xlink:href="#DejaVuSans-440" x="2058.447266"/>
     <use xlink:href="#DejaVuSans-43c" x="2121.923828"/>
     <use xlink:href="#DejaVuSans-430" x="2197.363281"/>
     <use xlink:href="#DejaVuSans-446" x="2258.642578"/>
     <use xlink:href="#DejaVuSans-438" x="2326.708984"/>
     <use xlink:href="#DejaVuSans-441" x="2391.699219"/>
     <use xlink:href="#DejaVuSans-43a" x="2446.679688"/>
     <use xlink:href="#DejaVuSans-438" x="2507.080078"/>
     <use xlink:href="#DejaVuSans-20" x="2572.070312"/>
     <use xlink:href="#DejaVuSans-431" x="2603.857422"/>
     <use xlink:href="#DejaVuSans-438" x="2665.527344"/>
     <use xlink:href="#DejaVuSans-442" x="2730.517578"/>
     <use xlink:href="#DejaVuSans-43e" x="2788.769531"/>
     <use xlink:href="#DejaVuSans-432" x="2849.951172"/>
     <use xlink:href="#DejaVuSans-438" x="2908.886719"/>
     <use xlink:href="#DejaVuSans-3d" x="2973.876953"/>
     <use xlink:href="#DejaVuSans-37" x="3057.666016"/>
     <use xlink:href="#DejaVuSans-2c" x="3121.289062"/>
     <use xlink:href="#DejaVuSans-20" x="3153.076172"/>
     <use xlink:href="#DejaVuSans-41e" x="3184.863281"/>
     <use xlink:href="#DejaVuSans-431" x="3263.574219"/>
     <use xlink:href="#DejaVuSans-438" x="3325.244141"/>
     <use xlink:href="#DejaVuSans-434" x="3390.234375"/>
     <use xlink:href="#DejaVuSans-438" x="3459.375"/>
     <use xlink:href="#DejaVuSans-3d" x="3524.365234"/>
     <use xlink:href="#DejaVuSans-31" x="3608.154297"/>
     <use xlink:href="#DejaVuSans-30" x="3671.777344"/>
     <use xlink:href="#DejaVuSans-30" x="3735.400391"/>
    </g>
   </g>
   <g id="legend_1">
    <g id="patch_7">
     <path d="M 518.326563 183.320312 
L 641 183.320312 
Q 643 183.320312 643 181.320312 
L 643 93.4 
Q 643 91.4 641 91.4 
L 518.326563 91.4 
Q 516.326563 91.4 516.326563 93.4 
L 516.326563 181.320312 
Q 516.326563 183.320312 518.326563 183.320312 
z
" style="fill: #ffffff; opacity: 0.8; stroke: #cccccc; stroke-linejoin: miter"/>
    </g>
    <g id="line2d_41">
     <path d="M 520.326563 99.66875 
L 530.326563 99.66875 
L 540.326563 99.66875 
" style="fill: none; stroke: #ff0000; stroke-width: 1.5; stroke-linecap: square"/>
     <g>
      <use xlink:href="#ma0a2403734" x="530.326563" y="99.66875" style="fill: #ff0000; stroke: #ff0000"/>
     </g>
    </g>
    <g id="text_17">
     <!-- Турбо код, 1 ит. -->
     <g transform="translate(548.326563 103.16875) scale(0.1 -0.1)">
      <defs>
       <path id="DejaVuSans-2e" d="M 684 794 
L 1344 794 
L 1344 0 
L 684 0 
L 684 794 
z
" transform="scale(0.015625)"/>
      </defs>
      <use xlink:href="#DejaVuSans-422"/>
      <use xlink:href="#DejaVuSans-443" x="61.083984"/>
      <use xlink:href="#DejaVuSans-440" x="120.263672"/>
      <use xlink:href="#DejaVuSans-431" x="183.740234"/>
      <use xlink:href="#DejaVuSans-43e" x="245.410156"/>
      <use xlink:href="#DejaVuSans-20" x="306.591797"/>
      <use xlink:href="#DejaVuSans-43a" x="338.378906"/>
      <use xlink:href="#DejaVuSans-43e" x="398.779297"/>
      <use xlink:href="#DejaVuSans-434" x="459.960938"/>
      <use xlink:href="#DejaVuSans-2c" x="529.101562"/>
      <use xlink:href="#DejaVuSans-20" x="560.888672"/>
      <use xlink:href="#DejaVuSans-31" x="592.675781"/>
      <use xlink:href="#DejaVuSans-20" x="656.298828"/>
      <use xlink:href="#DejaVuSans-438" x="688.085938"/>
      <use xlink:href="#DejaVuSans-442" x="753.076172"/>
      <use xlink:href="#DejaVuSans-2e" x="811.328125"/>
     </g>
    </g>
    <g id="line2d_42">
     <path d="M 520.326563 114.517188 
L 530.326563 114.517188 
L 540.326563 114.517188 
" style="fill: none; stroke: #008000; stroke-width: 1.5; stroke-linecap: square"/>
     <g>
      <use xlink:href="#ma49f2cbdbb" x="530.326563" y="114.517188" style="fill: #008000; stroke: #008000"/>
     </g>
    </g>
    <g id="text_18">
     <!-- Турбо код, 2 ит. -->
     <g transform="translate(548.326563 118.017188) scale(0.1 -0.1)">
      <use xlink:href="#DejaVuSans-422"/>
      <use xlink:href="#DejaVuSans-443" x="61.083984"/>
      <use xlink:href="#DejaVuSans-440" x="120.263672"/>
      <use xlink:href="#DejaVuSans-431" x="183.740234"/>
      <use xlink:href="#DejaVuSans-43e" x="245.410156"/>
      <use xlink:href="#DejaVuSans-20" x="306.591797"/>
      <use xlink:href="#DejaVuSans-43a" x="338.378906"/>
      <use xlink:href="#DejaVuSans-43e" x="398.779297"/>
      <use xlink:href="#DejaVuSans-434" x="459.960938"/>
      <use xlink:href="#DejaVuSans-2c" x="529.101562"/>
      <use xlink:href="#DejaVuSans-20" x="560.888672"/>
      <use xlink:href="#DejaVuSans-32" x="592.675781"/>
      <use xlink:href="#DejaVuSans-20" x="656.298828"/>
      <use xlink:href="#DejaVuSans-438" x="688.085938"/>
      <use xlink:href="#DejaVuSans-442" x="753.076172"/>
      <use xlink:href="#DejaVuSans-2e" x="811.328125"/>
     </g>
    </g>
    <g id="line2d_43">
     <path d="M 520.326563 129.365625 
L 530.326563 129.365625 
L 540.326563 129.365625 
" style="fill: none; stroke: #bf00bf; stroke-width: 1.5; stroke-linecap: square"/>
     <g>
      <use xlink:href="#m18211c1149" x="530.326563" y="129.365625" style="fill: #bf00bf; stroke: #bf00bf"/>
     </g>
    </g>
    <g id="text_19">
     <!-- Турбо код, 4 ит. -->
     <g transform="translate(548.326563 132.865625) scale(0.1 -0.1)">
      <use xlink:href="#DejaVuSans-422"/>
      <use xlink:href="#DejaVuSans-443" x="61.083984"/>
      <use xlink:href="#DejaVuSans-440" x="120.263672"/>
      <use xlink:href="#DejaVuSans-431" x="183.740234"/>
      <use xlink:href="#DejaVuSans-43e" x="245.410156"/>
      <use xlink:href="#DejaVuSans-20" x="306.591797"/>
      <use xlink:href="#DejaVuSans-43a" x="338.378906"/>
      <use xlink:href="#DejaVuSans-43e" x="398.779297"/>
      <use xlink:href="#DejaVuSans-434" x="459.960938"/>
      <use xlink:href="#DejaVuSans-2c" x="529.101562"/>
      <use xlink:href="#DejaVuSans-20" x="560.888672"/>
      <use xlink:href="#DejaVuSans-34" x="592.675781"/>
      <use xlink:href="#DejaVuSans-20" x="656.298828"/>
      <use xlink:href="#DejaVuSans-438" x="688.085938"/>
      <use xlink:href="#DejaVuSans-442" x="753.076172"/>
      <use xlink:href="#DejaVuSans-2e" x="811.328125"/>
     </g>
    </g>
    <g id="line2d_44">
     <path d="M 520.326563 144.214063 
L 530.326563 144.214063 
L 540.326563 144.214063 
" style="fill: none; stroke: #00bfbf; stroke-width: 1.5; stroke-linecap: square"/>
     <g>
      <use xlink:href="#mfcf9b4f562" x="530.326563" y="144.214063" style="fill: #00bfbf; stroke: #00bfbf"/>
     </g>
    </g>
    <g id="text_20">
     <!-- Турбо код, 8 ит. -->
     <g transform="translate(548.326563 147.714063) scale(0.1 -0.1)">
      <defs>
       <path id="DejaVuSans-38" d="M 2034 2216 
Q 1584 2216 1326 1975 
Q 1069 1734 1069 1313 
Q 1069 891 1326 650 
Q 1584 409 2034 409 
Q 2484 409 2743 651 
Q 3003 894 3003 1313 
Q 3003 1734 2745 1975 
Q 2488 2216 2034 2216 
z
M 1403 2484 
Q 997 2584 770 2862 
Q 544 3141 544 3541 
Q 544 4100 942 4425 
Q 1341 4750 2034 4750 
Q 2731 4750 3128 4425 
Q 3525 4100 3525 3541 
Q 3525 3141 3298 2862 
Q 3072 2584 2669 2484 
Q 3125 2378 3379 2068 
Q 3634 1759 3634 1313 
Q 3634 634 3220 271 
Q 2806 -91 2034 -91 
Q 1263 -91 848 271 
Q 434 634 434 1313 
Q 434 1759 690 2068 
Q 947 2378 1403 2484 
z
M 1172 3481 
Q 1172 3119 1398 2916 
Q 1625 2713 2034 2713 
Q 2441 2713 2670 2916 
Q 2900 3119 2900 3481 
Q 2900 3844 2670 4047 
Q 2441 4250 2034 4250 
Q 1625 4250 1398 4047 
Q 1172 3844 1172 3481 
z
" transform="scale(0.015625)"/>
      </defs>
      <use xlink:href="#DejaVuSans-422"/>
      <use xlink:href="#DejaVuSans-443" x="61.083984"/>
      <use xlink:href="#DejaVuSans-440" x="120.263672"/>
      <use xlink:href="#DejaVuSans-431" x="183.740234"/>
      <use xlink:href="#DejaVuSans-43e" x="245.410156"/>
      <use xlink:href="#DejaVuSans-20" x="306.591797"/>
      <use xlink:href="#DejaVuSans-43a" x="338.378906"/>
      <use xlink:href="#DejaVuSans-43e" x="398.779297"/>
      <use xlink:href="#DejaVuSans-434" x="459.960938"/>
      <use xlink:href="#DejaVuSans-2c" x="529.101562"/>
      <use xlink:href="#DejaVuSans-20" x="560.888672"/>
      <use xlink:href="#DejaVuSans-38" x="592.675781"/>
      <use xlink:href="#DejaVuSans-20" x="656.298828"/>
      <use xlink:href="#DejaVuSans-438" x="688.085938"/>
      <use xlink:href="#DejaVuSans-442" x="753.076172"/>
      <use xlink:href="#DejaVuSans-2e" x="811.328125"/>
     </g>
    </g>
    <g id="line2d_45">
     <path d="M 520.326563 159.0625 
L 530.326563 159.0625 
L 540.326563 159.0625 
" style="fill: none; stroke: #bfbf00; stroke-width: 1.5; stroke-linecap: square"/>
     <g>
      <use xlink:href="#m017194120f" x="530.326563" y="159.0625" style="fill: #bfbf00; stroke: #bfbf00"/>
     </g>
    </g>
    <g id="text_21">
     <!-- Турбо код, 16 ит. -->
     <g transform="translate(548.326563 162.5625) scale(0.1 -0.1)">
      <use xlink:href="#DejaVuSans-422"/>
      <use xlink:href="#DejaVuSans-443" x="61.083984"/>
      <use xlink:href="#DejaVuSans-440" x="120.263672"/>
      <use xlink:href="#DejaVuSans-431" x="183.740234"/>
      <use xlink:href="#DejaVuSans-43e" x="245.410156"/>
      <use xlink:href="#DejaVuSans-20" x="306.591797"/>
      <use xlink:href="#DejaVuSans-43a" x="338.378906"/>
      <use xlink:href="#DejaVuSans-43e" x="398.779297"/>
      <use xlink:href="#DejaVuSans-434" x="459.960938"/>
      <use xlink:href="#DejaVuSans-2c" x="529.101562"/>
      <use xlink:href="#DejaVuSans-20" x="560.888672"/>
      <use xlink:href="#DejaVuSans-31" x="592.675781"/>
      <use xlink:href="#DejaVuSans-36" x="656.298828"/>
      <use xlink:href="#DejaVuSans-20" x="719.921875"/>
      <use xlink:href="#DejaVuSans-438" x="751.708984"/>
      <use xlink:href="#DejaVuSans-442" x="816.699219"/>
      <use xlink:href="#DejaVuSans-2e" x="874.951172"/>
     </g>
    </g>
    <g id="line2d_46">
     <path d="M 520.326563 173.740625 
L 530.326563 173.740625 
L 540.326563 173.740625 
" style="fill: none; stroke: #0000ff; stroke-width: 1.5; stroke-linecap: square"/>
     <g>
      <use xlink:href="#m1b154a43cc" x="530.326563" y="173.740625" style="fill: #0000ff; stroke: #0000ff"/>
     </g>
    </g>
    <g id="text_22">
     <!-- Без код -->
     <g transform="translate(548.326563 177.240625) scale(0.1 -0.1)">
      <defs>
       <path id="DejaVuSans-411" d="M 3272 1372 
Q 3272 1806 3026 2017 
Q 2781 2228 2272 2228 
L 1259 2228 
L 1259 519 
L 2272 519 
Q 2781 519 3026 730 
Q 3272 941 3272 1372 
z
M 3609 4666 
L 3609 4147 
L 1259 4147 
L 1259 2747 
L 2303 2747 
Q 3088 2747 3513 2406 
Q 3938 2066 3938 1372 
Q 3938 681 3527 340 
Q 3116 0 2303 0 
L 628 0 
L 628 4666 
L 3609 4666 
z
" transform="scale(0.015625)"/>
       <path id="DejaVuSans-437" d="M 2206 1888 
Q 2594 1813 2809 1584 
Q 3025 1356 3025 1019 
Q 3025 478 2622 193 
Q 2219 -91 1475 -91 
Q 1225 -91 961 -47 
Q 697 -3 416 84 
L 416 619 
Q 638 503 903 445 
Q 1169 388 1459 388 
Q 1931 388 2195 563 
Q 2459 738 2459 1019 
Q 2459 1294 2225 1461 
Q 1991 1628 1563 1628 
L 1100 1628 
L 1100 2103 
L 1584 2103 
Q 1947 2103 2158 2242 
Q 2369 2381 2369 2600 
Q 2369 2800 2151 2944 
Q 1934 3088 1563 3088 
Q 1341 3088 1089 3047 
Q 838 3006 534 2916 
L 534 3438 
Q 841 3513 1106 3550 
Q 1372 3588 1609 3588 
Q 2222 3588 2576 3342 
Q 2931 3097 2931 2656 
Q 2931 2366 2743 2164 
Q 2556 1963 2206 1888 
z
" transform="scale(0.015625)"/>
      </defs>
      <use xlink:href="#DejaVuSans-411"/>
      <use xlink:href="#DejaVuSans-435" x="68.603516"/>
      <use xlink:href="#DejaVuSans-437" x="130.126953"/>
      <use xlink:href="#DejaVuSans-20" x="183.300781"/>
      <use xlink:href="#DejaVuSans-43a" x="215.087891"/>
      <use xlink:href="#DejaVuSans-43e" x="275.488281"/>
      <use xlink:href="#DejaVuSans-434" x="336.669922"/>
     </g>
    </g>
   </g>
  </g>
 </g>
 <defs>
  <clipPath id="p809bce743d">
   <rect x="90" y="86.4" width="558" height="554.4"/>
  </clipPath>
 </defs>
</svg>
